<?xml version="1.0" encoding="utf-8"?>
<!-- Generated by IcoMoon.io -->
<!DOCTYPE svg PUBLIC "-//W3C//DTD SVG 1.1//EN" "http://www.w3.org/Graphics/SVG/1.1/DTD/svg11.dtd">
<svg version="1.1" xmlns="http://www.w3.org/2000/svg" xmlns:xlink="http://www.w3.org/1999/xlink" width="1024" height="1024" viewBox="0 0 1024 1024">
<g id="icomoon-ignore">
</g>
<path d="M512 8.533q98.987 0 193.707 42.24t164.267 111.787 111.787 164.267 42.24 193.707v256q0 8.533-6.4 14.933t-14.933 6.4h-42.667q-8.533 0-14.933-6.4t-6.4-14.933v-256q0-108.373-60.16-197.547t-157.44-137.813-209.067-48.64-209.067 48.64-157.44 137.813-60.16 197.547v256q0 8.533-6.4 14.933t-14.933 6.4h-42.667q-8.533 0-14.933-6.4t-6.4-14.933v-256q0-98.987 42.24-193.707t111.787-164.267 164.267-111.787 193.707-42.24zM187.733 584.533h136.533q6.827 0 11.947 5.12t5.12 11.947v392.533q0 6.827-5.12 11.947t-11.947 5.12h-136.533q-6.827 0-11.947-5.12t-5.12-11.947v-392.533q0-6.827 5.12-11.947t11.947-5.12zM699.733 584.533h136.533q6.827 0 11.947 5.12t5.12 11.947v392.533q0 6.827-5.12 11.947t-11.947 5.12h-136.533q-6.827 0-11.947-5.12t-5.12-11.947v-392.533q0-6.827 5.12-11.947t11.947-5.12z"></path>
</svg>
